<svg width="142" height="45" viewBox="0 0 142 45" fill="none" xmlns="http://www.w3.org/2000/svg">
<path d="M5.56277 23.99C5.30277 22.37 5.17277 20.71 5.17277 19.01C5.17277 17.29 5.30277 15.64 5.56277 14.06C5.80277 12.6 6.08277 11.43 6.40277 10.55C6.74277 9.67 7.22277 8.98 7.84277 8.48C8.46277 7.96 9.29277 7.59 10.3328 7.37C12.0728 7.03 13.7828 6.86 15.4628 6.86C17.6628 6.86 19.6328 7.39 21.3728 8.45C23.1128 9.51 24.4728 10.96 25.4528 12.8C26.4528 14.64 26.9528 16.69 26.9528 18.95C26.9528 21.25 26.4628 23.33 25.4828 25.19C24.5228 27.05 23.1728 28.51 21.4328 29.57C19.6928 30.65 17.7028 31.19 15.4628 31.19C13.7828 31.19 12.0728 31.02 10.3328 30.68C9.29277 30.46 8.46277 30.09 7.84277 29.57C7.22277 29.07 6.74277 28.38 6.40277 27.5C6.08277 26.62 5.80277 25.45 5.56277 23.99ZM15.1328 12.71C14.4328 12.71 13.9228 12.91 13.6028 13.31C13.3028 13.71 13.0828 14.29 12.9428 15.05C12.6828 16.41 12.5528 17.97 12.5528 19.73C12.5528 21.43 12.6928 22.76 12.9728 23.72C13.2728 24.76 14.0128 25.28 15.1928 25.28H15.4928C16.0528 25.24 16.6328 25 17.2328 24.56C17.8328 24.1 18.3328 23.4 18.7328 22.46C19.1528 21.5 19.3628 20.31 19.3628 18.89C19.3628 17.47 19.1428 16.3 18.7028 15.38C18.2628 14.44 17.7128 13.76 17.0528 13.34C16.4128 12.92 15.7728 12.71 15.1328 12.71ZM31.7343 21.17C31.4343 21.29 31.1343 21.35 30.8343 21.35C30.4743 21.35 30.1443 21.26 29.8443 21.08C29.5643 20.9 29.3343 20.64 29.1543 20.3C28.9943 19.98 28.9143 19.69 28.9143 19.43C28.9143 18.59 29.5143 17.85 30.7143 17.21C31.9143 16.55 33.6043 16.11 35.7843 15.89C36.2643 15.85 36.6143 15.83 36.8343 15.83C39.0343 15.83 40.6243 16.55 41.6043 17.99C42.6043 19.43 43.1543 21.31 43.2543 23.63C43.2743 24.19 43.2343 24.82 43.1343 25.52C43.6143 26.84 43.8543 27.94 43.8543 28.82C43.8543 30 43.3743 30.79 42.4143 31.19C41.8743 31.39 41.4043 31.49 41.0043 31.49C40.5243 31.49 40.0943 31.38 39.7143 31.16C39.3543 30.94 39.0843 30.63 38.9043 30.23C37.4643 31.15 35.6643 31.61 33.5043 31.61C30.2843 31.61 28.6743 30.28 28.6743 27.62C28.6743 26.48 29.1143 25.47 29.9943 24.59C30.8943 23.71 31.9743 23.04 33.2343 22.58C34.4943 22.1 35.6443 21.88 36.6843 21.92C36.5843 21.4 36.4143 21.03 36.1743 20.81C35.9543 20.59 35.5943 20.48 35.0943 20.48C34.0543 20.48 32.9343 20.71 31.7343 21.17ZM36.5943 26.48C36.5943 25.84 36.3343 25.52 35.8143 25.52H35.6343C35.1143 25.6 34.7343 25.79 34.4943 26.09C34.2543 26.37 34.1643 26.66 34.2243 26.96C34.3243 27.38 34.6043 27.59 35.0643 27.59L35.3943 27.56C35.8343 27.5 36.1443 27.39 36.3243 27.23C36.5043 27.07 36.5943 26.82 36.5943 26.48ZM45.8528 23.36C46.0128 20.96 46.4628 19.12 47.2028 17.84C47.9428 16.54 49.0028 15.89 50.3828 15.89C51.3428 15.89 52.1028 16.22 52.6628 16.88C53.0428 16.58 53.4728 16.34 53.9528 16.16C54.4528 15.98 54.9628 15.89 55.4828 15.89C57.0828 15.89 58.4328 16.22 59.5328 16.88C60.6328 17.54 61.4628 18.46 62.0228 19.64C62.5828 20.8 62.8628 22.13 62.8628 23.63C62.8628 24.63 62.7528 25.69 62.5328 26.81C62.3128 27.93 61.9128 28.9 61.3328 29.72C60.7728 30.56 60.0128 30.98 59.0528 30.98C57.8528 30.98 57.0328 30.37 56.5928 29.15C56.1728 27.95 55.9928 26.21 56.0528 23.93C56.0728 23.11 56.0028 22.51 55.8428 22.13C55.6828 21.73 55.4028 21.53 55.0028 21.53C54.5628 21.53 54.2228 21.71 53.9828 22.07C53.9828 24.33 53.6628 26.38 53.0228 28.22C52.4028 30.06 51.2028 30.98 49.4228 30.98C47.0028 30.98 45.7928 28.98 45.7928 24.98C45.7928 24.66 45.8128 24.12 45.8528 23.36ZM82.9222 28.34C82.7622 30.62 82.3722 32.5 81.7522 33.98C81.1522 35.46 80.2622 36.53 79.0822 37.19C78.2822 37.63 77.3622 37.96 76.3222 38.18C75.2822 38.42 74.2122 38.54 73.1122 38.54C71.7722 38.54 70.5022 38.38 69.3022 38.06C68.1222 37.74 67.1722 37.27 66.4522 36.65C65.7322 36.03 65.3722 35.3 65.3722 34.46C65.3722 34.14 65.4122 33.85 65.4922 33.59C65.8522 32.37 66.8122 31.76 68.3722 31.76C69.9522 31.76 72.1922 32.41 75.0922 33.71C74.9722 33.27 74.9122 32.85 74.9122 32.45C74.9122 31.91 75.0422 31.33 75.3022 30.71C75.0222 30.89 74.6422 31.04 74.1622 31.16C73.6822 31.3 73.1922 31.37 72.6922 31.37C71.0922 31.37 69.6822 31.03 68.4622 30.35C67.2622 29.69 66.3322 28.78 65.6722 27.62C65.0322 26.44 64.7122 25.11 64.7122 23.63C64.7122 22.21 65.0522 20.92 65.7322 19.76C66.4122 18.6 67.3722 17.68 68.6122 17C69.8722 16.3 71.3322 15.93 72.9922 15.89H73.2322C74.7522 15.89 76.0422 16.42 77.1022 17.48C77.2822 17.1 77.6122 16.81 78.0922 16.61C78.5722 16.39 79.0022 16.28 79.3822 16.28C80.5822 16.3 81.4922 17.07 82.1122 18.59C82.7322 20.11 83.0422 22.29 83.0422 25.13C83.0422 26.25 83.0022 27.32 82.9222 28.34ZM73.1722 25.73C73.7122 25.73 74.1522 25.5 74.4922 25.04C74.8522 24.58 75.0322 24.03 75.0322 23.39C75.0322 22.77 74.8922 22.25 74.6122 21.83C74.3522 21.41 73.9322 21.19 73.3522 21.17H73.2622C72.7222 21.17 72.2922 21.41 71.9722 21.89C71.6722 22.37 71.5222 22.98 71.5222 23.72C71.5222 24.3 71.6522 24.78 71.9122 25.16C72.1922 25.52 72.6122 25.71 73.1722 25.73ZM94.6185 19.85C94.6185 19.03 94.9485 18.37 95.6085 17.87C96.2685 17.37 97.0585 17.02 97.9785 16.82C98.8985 16.6 99.7685 16.49 100.588 16.49C101.968 16.49 103.058 16.72 103.858 17.18C104.658 17.64 105.238 18.4 105.598 19.46C105.978 20.52 106.168 21.97 106.168 23.81C106.168 25.87 105.858 27.63 105.238 29.09C104.638 30.55 103.758 31.35 102.598 31.49H102.358C101.538 31.49 100.858 30.94 100.318 29.84C98.8585 30.74 97.2085 31.19 95.3685 31.19C93.1885 31.19 91.2985 30.65 89.6985 29.57C88.1185 28.49 86.9185 27.03 86.0985 25.19C85.2785 23.35 84.8685 21.3 84.8685 19.04C84.8685 16.84 85.3085 14.85 86.1885 13.07C87.0885 11.27 88.3585 9.84 89.9985 8.78C91.6385 7.7 93.5485 7.12 95.7285 7.04H96.2385C97.6385 7.04 98.9785 7.26 100.258 7.7C101.538 8.12 102.488 8.69 103.108 9.41C103.748 10.17 104.068 10.98 104.068 11.84C104.068 12.52 103.878 13.11 103.498 13.61C103.238 13.95 102.908 14.21 102.508 14.39C102.108 14.57 101.688 14.66 101.248 14.66C100.728 14.66 100.298 14.56 99.9585 14.36C99.4985 14.1 98.9685 13.89 98.3685 13.73C97.7685 13.55 97.1985 13.46 96.6585 13.46C95.8785 13.46 95.1685 13.73 94.5285 14.27C93.8885 14.81 93.3785 15.53 92.9985 16.43C92.6385 17.33 92.4585 18.29 92.4585 19.31C92.4585 20.81 92.7785 22.09 93.4185 23.15C94.0585 24.19 94.9985 24.75 96.2385 24.83L96.7785 24.86C97.7585 24.86 98.5585 24.72 99.1785 24.44C99.1385 23.74 99.1385 23.13 99.1785 22.61C97.9385 22.59 96.8685 22.37 95.9685 21.95C95.0685 21.53 94.6185 20.83 94.6185 19.85ZM116.36 15.92C118.14 15.92 119.66 16.26 120.92 16.94C122.2 17.62 123.16 18.54 123.8 19.7C124.46 20.86 124.79 22.17 124.79 23.63C124.79 25.05 124.45 26.34 123.77 27.5C123.09 28.66 122.12 29.58 120.86 30.26C119.62 30.96 118.17 31.33 116.51 31.37H116.09C114.33 31.37 112.81 31.03 111.53 30.35C110.27 29.67 109.31 28.74 108.65 27.56C107.99 26.38 107.66 25.05 107.66 23.57C107.66 22.17 108 20.9 108.68 19.76C109.36 18.62 110.32 17.71 111.56 17.03C112.8 16.33 114.25 15.96 115.91 15.92H116.36ZM116.33 21.53C115.79 21.53 115.34 21.76 114.98 22.22C114.64 22.68 114.47 23.23 114.47 23.87C114.47 24.49 114.6 25.01 114.86 25.43C115.14 25.85 115.57 26.07 116.15 26.09H116.24C116.78 26.09 117.2 25.85 117.5 25.37C117.82 24.89 117.98 24.28 117.98 23.54C117.98 22.96 117.84 22.49 117.56 22.13C117.3 21.75 116.89 21.55 116.33 21.53Z" fill="white"/>
<path d="M137.281 9.68182L134.966 4.45455H135.903L137.523 8.28977L139.142 4.45455H140.08L137.764 9.68182H137.281ZM134.795 9.68182V4.45455H135.705V9.68182H134.795ZM139.341 9.68182V4.45455H140.25V9.68182H139.341ZM131.386 9.68182V4.90909H132.295V9.68182H131.386ZM129.795 5.25V4.45455H133.886V5.25H129.795Z" fill="white"/>
</svg>
