<svg width="394" height="134" viewBox="0 0 394 134" fill="none" xmlns="http://www.w3.org/2000/svg">
<g filter="url(#filter0_d_232_2008)">
<mask id="path-1-outside-1_232_2008" maskUnits="userSpaceOnUse" x="26.1666" y="9.68555" width="344" height="102" fill="black">
<rect fill="white" x="26.1666" y="9.68555" width="344" height="102"/>
<path d="M37.0193 63.7235C36.3467 59.5322 36.0103 55.2374 36.0103 50.8391C36.0103 46.389 36.3467 42.1201 37.0193 38.0323C37.6403 34.2549 38.3647 31.2278 39.1926 28.9511C40.0723 26.6743 41.3141 24.8891 42.9182 23.5955C44.5223 22.2501 46.6697 21.2929 49.3604 20.7237C53.8622 19.844 58.2864 19.4042 62.633 19.4042C68.3249 19.4042 73.4217 20.7754 77.9235 23.5179C82.4253 26.2604 85.9439 30.0118 88.4794 34.7724C91.0667 39.5329 92.3603 44.8367 92.3603 50.6838C92.3603 56.6345 91.0925 62.0159 88.557 66.8282C86.0733 71.6404 82.5805 75.4178 78.0787 78.1603C73.577 80.9545 68.4284 82.3516 62.633 82.3516C58.2864 82.3516 53.8622 81.9118 49.3604 81.0321C46.6697 80.4629 44.5223 79.5056 42.9182 78.1603C41.3141 76.8667 40.0723 75.0815 39.1926 72.8047C38.3647 70.5279 37.6403 67.5009 37.0193 63.7235ZM61.7792 34.5395C59.9681 34.5395 58.6486 35.0569 57.8207 36.0918C57.0445 37.1267 56.4753 38.6273 56.1131 40.5936C55.4404 44.1123 55.1041 48.1484 55.1041 52.7019C55.1041 57.1002 55.4663 60.5412 56.1907 63.025C56.9669 65.7157 58.8815 67.061 61.9344 67.061H62.7106C64.1594 66.9575 65.66 66.3366 67.2124 65.1982C68.7647 64.0081 70.0583 62.197 71.0932 59.765C72.1799 57.2813 72.7232 54.2025 72.7232 50.5286C72.7232 46.8547 72.154 43.8277 71.0156 41.4474C69.8772 39.0154 68.4542 37.2561 66.7467 36.1695C65.0908 35.0828 63.435 34.5395 61.7792 34.5395ZM104.731 56.4275C103.955 56.738 103.179 56.8932 102.403 56.8932C101.471 56.8932 100.617 56.6604 99.8412 56.1947C99.1168 55.729 98.5217 55.0563 98.056 54.1766C97.6421 53.3487 97.4351 52.5984 97.4351 51.9257C97.4351 49.7524 98.9874 47.8379 102.092 46.1821C105.197 44.4745 109.569 43.3361 115.209 42.7669C116.451 42.6634 117.357 42.6117 117.926 42.6117C123.618 42.6117 127.732 44.4745 130.267 48.2001C132.854 51.9257 134.277 56.7897 134.536 62.7921C134.588 64.241 134.484 65.8709 134.226 67.682C135.467 71.0971 136.088 73.9431 136.088 76.2198C136.088 79.2728 134.847 81.3167 132.363 82.3516C130.966 82.869 129.75 83.1278 128.715 83.1278C127.473 83.1278 126.36 82.8432 125.377 82.274C124.446 81.7048 123.747 80.9027 123.282 79.8678C119.556 82.2481 114.899 83.4382 109.31 83.4382C100.98 83.4382 96.8142 79.9972 96.8142 73.1152C96.8142 70.1657 97.9525 67.5526 100.229 65.2758C102.558 62.9991 105.352 61.2656 108.612 60.0755C111.872 58.8336 114.847 58.2644 117.538 58.3679C117.279 57.0226 116.839 56.0653 116.218 55.4961C115.649 54.9269 114.718 54.6423 113.424 54.6423C110.733 54.6423 107.836 55.2374 104.731 56.4275ZM117.305 70.1657C117.305 68.5099 116.632 67.682 115.287 67.682H114.821C113.476 67.889 112.493 68.3805 111.872 69.1567C111.251 69.8811 111.018 70.6314 111.173 71.4076C111.432 72.4942 112.156 73.0375 113.347 73.0375L114.2 72.9599C115.339 72.8047 116.141 72.5201 116.606 72.1061C117.072 71.6922 117.305 71.0454 117.305 70.1657ZM141.259 62.0935C141.673 55.8842 142.837 51.1237 144.752 47.812C146.666 44.4486 149.409 42.7669 152.979 42.7669C155.463 42.7669 157.429 43.6207 158.878 45.3283C159.861 44.5521 160.974 43.9312 162.216 43.4655C163.509 42.9998 164.829 42.7669 166.174 42.7669C170.314 42.7669 173.806 43.6207 176.652 45.3283C179.498 47.0358 181.646 49.4161 183.095 52.469C184.543 55.4702 185.268 58.9112 185.268 62.7921C185.268 65.3793 184.983 68.1218 184.414 71.0195C183.845 73.9172 182.81 76.4268 181.309 78.5484C179.861 80.7216 177.894 81.8083 175.41 81.8083C172.306 81.8083 170.184 80.2301 169.046 77.0736C167.959 73.969 167.494 69.4672 167.649 63.5683C167.701 61.4467 167.519 59.8944 167.105 58.9112C166.692 57.8764 165.967 57.3589 164.932 57.3589C163.794 57.3589 162.914 57.8246 162.293 58.756C162.293 64.6032 161.465 69.907 159.809 74.6675C158.205 79.428 155.101 81.8083 150.495 81.8083C144.234 81.8083 141.104 76.6338 141.104 66.2849C141.104 65.457 141.156 64.0598 141.259 62.0935ZM237.166 74.978C236.752 80.8769 235.743 85.7409 234.139 89.57C232.587 93.3991 230.284 96.1674 227.231 97.875C225.162 99.0134 222.781 99.8672 220.091 100.436C217.4 101.057 214.632 101.368 211.786 101.368C208.319 101.368 205.033 100.954 201.928 100.126C198.875 99.298 196.417 98.082 194.555 96.4779C192.692 94.8738 191.76 92.9851 191.76 90.8118C191.76 89.9839 191.864 89.2336 192.071 88.561C193.002 85.4045 195.486 83.8263 199.522 83.8263C203.61 83.8263 209.405 85.508 216.908 88.8714C216.598 87.733 216.443 86.6464 216.443 85.6115C216.443 84.2144 216.779 82.7138 217.452 81.1097C216.727 81.5754 215.744 81.9635 214.502 82.274C213.26 82.6362 211.993 82.8173 210.699 82.8173C206.559 82.8173 202.911 81.9376 199.755 80.1783C196.65 78.4707 194.244 76.1164 192.537 73.1152C190.881 70.0622 190.053 66.6212 190.053 62.7921C190.053 59.1182 190.932 55.7807 192.692 52.7795C194.451 49.7783 196.935 47.3981 200.143 45.6387C203.403 43.8277 207.18 42.8704 211.475 42.7669H212.096C216.029 42.7669 219.366 44.1381 222.109 46.8806C222.574 45.8975 223.428 45.1472 224.67 44.6297C225.912 44.0605 227.024 43.7759 228.008 43.7759C231.112 43.8277 233.467 45.8198 235.071 49.7524C236.675 53.685 237.477 59.3252 237.477 66.673C237.477 69.5707 237.373 72.339 237.166 74.978ZM211.941 68.2253C213.338 68.2253 214.476 67.6302 215.356 66.4401C216.287 65.25 216.753 63.827 216.753 62.1712C216.753 60.5671 216.391 59.2217 215.666 58.1351C214.994 57.0484 213.907 56.4792 212.407 56.4275H212.174C210.777 56.4275 209.664 57.0484 208.836 58.2903C208.06 59.5322 207.672 61.1104 207.672 63.025C207.672 64.5255 208.008 65.7674 208.681 66.7506C209.405 67.682 210.492 68.1735 211.941 68.2253ZM267.427 53.0124C267.427 50.8908 268.281 49.1832 269.989 47.8896C271.696 46.596 273.74 45.6905 276.12 45.173C278.501 44.6038 280.752 44.3192 282.873 44.3192C286.443 44.3192 289.264 44.9143 291.333 46.1044C293.403 47.2946 294.904 49.2609 295.835 52.0033C296.818 54.7458 297.31 58.4973 297.31 63.2578C297.31 68.5875 296.508 73.141 294.904 76.9184C293.351 80.6958 291.075 82.7655 288.073 83.1278H287.452C285.331 83.1278 283.572 81.7048 282.175 78.8588C278.397 81.1873 274.128 82.3516 269.368 82.3516C263.728 82.3516 258.838 80.9545 254.698 78.1603C250.61 75.3661 247.506 71.5887 245.384 66.8282C243.263 62.0677 242.202 56.7638 242.202 50.9167C242.202 45.2248 243.34 40.0762 245.617 35.4709C247.945 30.8139 251.231 27.1141 255.474 24.3717C259.717 21.5775 264.659 20.0769 270.299 19.8699H271.619C275.241 19.8699 278.708 20.4391 282.019 21.5775C285.331 22.6641 287.789 24.1388 289.393 26.0016C291.049 27.9679 291.877 30.0636 291.877 32.2886C291.877 34.0479 291.385 35.5744 290.402 36.868C289.729 37.7477 288.875 38.4204 287.841 38.8861C286.806 39.3518 285.719 39.5846 284.581 39.5846C283.235 39.5846 282.123 39.3259 281.243 38.8084C280.053 38.1358 278.682 37.5924 277.129 37.1785C275.577 36.7128 274.102 36.4799 272.705 36.4799C270.687 36.4799 268.85 37.1785 267.194 38.5756C265.539 39.9727 264.219 41.8355 263.236 44.164C262.305 46.4925 261.839 48.9763 261.839 51.6152C261.839 55.4961 262.667 58.8078 264.323 61.5502C265.978 64.241 268.41 65.6898 271.619 65.8968L273.016 65.9744C275.551 65.9744 277.621 65.6122 279.225 64.8878C279.122 63.0767 279.122 61.4985 279.225 60.1531C276.017 60.1014 273.249 59.5322 270.92 58.4455C268.592 57.3589 267.427 55.5478 267.427 53.0124ZM330.819 19.8699C336.873 19.8699 342.073 21.2411 346.42 23.9836C350.766 26.7261 354.052 30.4775 356.277 35.2381C358.502 39.9468 359.614 45.2765 359.614 51.2272C359.614 57.0226 358.45 62.2747 356.122 66.9834C353.845 71.6404 350.585 75.3402 346.342 78.0827C342.099 80.8769 337.131 82.3775 331.44 82.5844H330.042C324.04 82.5844 318.866 81.1873 314.519 78.3931C310.224 75.6507 306.938 71.8992 304.662 67.1387C302.437 62.3264 301.324 56.9191 301.324 50.9167C301.324 45.2248 302.462 40.0762 304.739 35.4709C307.068 30.8139 310.354 27.1141 314.597 24.3717C318.84 21.5775 323.781 20.0769 329.421 19.8699H330.819ZM331.051 36.4799C329.033 36.4799 327.248 37.1785 325.696 38.5756C324.195 39.9727 323.031 41.8614 322.203 44.2416C321.375 46.5701 320.961 49.1056 320.961 51.8481C320.961 55.7807 321.686 59.0665 323.134 61.7055C324.583 64.2927 326.86 65.6898 329.965 65.8968H330.43C333.432 65.8968 335.76 64.3444 337.416 61.2398C339.124 58.1351 339.977 54.2284 339.977 49.5196C339.977 45.6387 339.253 42.5082 337.804 40.1279C336.407 37.7477 334.156 36.5317 331.051 36.4799Z"/>
</mask>
<path d="M37.0193 63.7235C36.3467 59.5322 36.0103 55.2374 36.0103 50.8391C36.0103 46.389 36.3467 42.1201 37.0193 38.0323C37.6403 34.2549 38.3647 31.2278 39.1926 28.9511C40.0723 26.6743 41.3141 24.8891 42.9182 23.5955C44.5223 22.2501 46.6697 21.2929 49.3604 20.7237C53.8622 19.844 58.2864 19.4042 62.633 19.4042C68.3249 19.4042 73.4217 20.7754 77.9235 23.5179C82.4253 26.2604 85.9439 30.0118 88.4794 34.7724C91.0667 39.5329 92.3603 44.8367 92.3603 50.6838C92.3603 56.6345 91.0925 62.0159 88.557 66.8282C86.0733 71.6404 82.5805 75.4178 78.0787 78.1603C73.577 80.9545 68.4284 82.3516 62.633 82.3516C58.2864 82.3516 53.8622 81.9118 49.3604 81.0321C46.6697 80.4629 44.5223 79.5056 42.9182 78.1603C41.3141 76.8667 40.0723 75.0815 39.1926 72.8047C38.3647 70.5279 37.6403 67.5009 37.0193 63.7235ZM61.7792 34.5395C59.9681 34.5395 58.6486 35.0569 57.8207 36.0918C57.0445 37.1267 56.4753 38.6273 56.1131 40.5936C55.4404 44.1123 55.1041 48.1484 55.1041 52.7019C55.1041 57.1002 55.4663 60.5412 56.1907 63.025C56.9669 65.7157 58.8815 67.061 61.9344 67.061H62.7106C64.1594 66.9575 65.66 66.3366 67.2124 65.1982C68.7647 64.0081 70.0583 62.197 71.0932 59.765C72.1799 57.2813 72.7232 54.2025 72.7232 50.5286C72.7232 46.8547 72.154 43.8277 71.0156 41.4474C69.8772 39.0154 68.4542 37.2561 66.7467 36.1695C65.0908 35.0828 63.435 34.5395 61.7792 34.5395ZM104.731 56.4275C103.955 56.738 103.179 56.8932 102.403 56.8932C101.471 56.8932 100.617 56.6604 99.8412 56.1947C99.1168 55.729 98.5217 55.0563 98.056 54.1766C97.6421 53.3487 97.4351 52.5984 97.4351 51.9257C97.4351 49.7524 98.9874 47.8379 102.092 46.1821C105.197 44.4745 109.569 43.3361 115.209 42.7669C116.451 42.6634 117.357 42.6117 117.926 42.6117C123.618 42.6117 127.732 44.4745 130.267 48.2001C132.854 51.9257 134.277 56.7897 134.536 62.7921C134.588 64.241 134.484 65.8709 134.226 67.682C135.467 71.0971 136.088 73.9431 136.088 76.2198C136.088 79.2728 134.847 81.3167 132.363 82.3516C130.966 82.869 129.75 83.1278 128.715 83.1278C127.473 83.1278 126.36 82.8432 125.377 82.274C124.446 81.7048 123.747 80.9027 123.282 79.8678C119.556 82.2481 114.899 83.4382 109.31 83.4382C100.98 83.4382 96.8142 79.9972 96.8142 73.1152C96.8142 70.1657 97.9525 67.5526 100.229 65.2758C102.558 62.9991 105.352 61.2656 108.612 60.0755C111.872 58.8336 114.847 58.2644 117.538 58.3679C117.279 57.0226 116.839 56.0653 116.218 55.4961C115.649 54.9269 114.718 54.6423 113.424 54.6423C110.733 54.6423 107.836 55.2374 104.731 56.4275ZM117.305 70.1657C117.305 68.5099 116.632 67.682 115.287 67.682H114.821C113.476 67.889 112.493 68.3805 111.872 69.1567C111.251 69.8811 111.018 70.6314 111.173 71.4076C111.432 72.4942 112.156 73.0375 113.347 73.0375L114.2 72.9599C115.339 72.8047 116.141 72.5201 116.606 72.1061C117.072 71.6922 117.305 71.0454 117.305 70.1657ZM141.259 62.0935C141.673 55.8842 142.837 51.1237 144.752 47.812C146.666 44.4486 149.409 42.7669 152.979 42.7669C155.463 42.7669 157.429 43.6207 158.878 45.3283C159.861 44.5521 160.974 43.9312 162.216 43.4655C163.509 42.9998 164.829 42.7669 166.174 42.7669C170.314 42.7669 173.806 43.6207 176.652 45.3283C179.498 47.0358 181.646 49.4161 183.095 52.469C184.543 55.4702 185.268 58.9112 185.268 62.7921C185.268 65.3793 184.983 68.1218 184.414 71.0195C183.845 73.9172 182.81 76.4268 181.309 78.5484C179.861 80.7216 177.894 81.8083 175.41 81.8083C172.306 81.8083 170.184 80.2301 169.046 77.0736C167.959 73.969 167.494 69.4672 167.649 63.5683C167.701 61.4467 167.519 59.8944 167.105 58.9112C166.692 57.8764 165.967 57.3589 164.932 57.3589C163.794 57.3589 162.914 57.8246 162.293 58.756C162.293 64.6032 161.465 69.907 159.809 74.6675C158.205 79.428 155.101 81.8083 150.495 81.8083C144.234 81.8083 141.104 76.6338 141.104 66.2849C141.104 65.457 141.156 64.0598 141.259 62.0935ZM237.166 74.978C236.752 80.8769 235.743 85.7409 234.139 89.57C232.587 93.3991 230.284 96.1674 227.231 97.875C225.162 99.0134 222.781 99.8672 220.091 100.436C217.4 101.057 214.632 101.368 211.786 101.368C208.319 101.368 205.033 100.954 201.928 100.126C198.875 99.298 196.417 98.082 194.555 96.4779C192.692 94.8738 191.76 92.9851 191.76 90.8118C191.76 89.9839 191.864 89.2336 192.071 88.561C193.002 85.4045 195.486 83.8263 199.522 83.8263C203.61 83.8263 209.405 85.508 216.908 88.8714C216.598 87.733 216.443 86.6464 216.443 85.6115C216.443 84.2144 216.779 82.7138 217.452 81.1097C216.727 81.5754 215.744 81.9635 214.502 82.274C213.26 82.6362 211.993 82.8173 210.699 82.8173C206.559 82.8173 202.911 81.9376 199.755 80.1783C196.65 78.4707 194.244 76.1164 192.537 73.1152C190.881 70.0622 190.053 66.6212 190.053 62.7921C190.053 59.1182 190.932 55.7807 192.692 52.7795C194.451 49.7783 196.935 47.3981 200.143 45.6387C203.403 43.8277 207.18 42.8704 211.475 42.7669H212.096C216.029 42.7669 219.366 44.1381 222.109 46.8806C222.574 45.8975 223.428 45.1472 224.67 44.6297C225.912 44.0605 227.024 43.7759 228.008 43.7759C231.112 43.8277 233.467 45.8198 235.071 49.7524C236.675 53.685 237.477 59.3252 237.477 66.673C237.477 69.5707 237.373 72.339 237.166 74.978ZM211.941 68.2253C213.338 68.2253 214.476 67.6302 215.356 66.4401C216.287 65.25 216.753 63.827 216.753 62.1712C216.753 60.5671 216.391 59.2217 215.666 58.1351C214.994 57.0484 213.907 56.4792 212.407 56.4275H212.174C210.777 56.4275 209.664 57.0484 208.836 58.2903C208.06 59.5322 207.672 61.1104 207.672 63.025C207.672 64.5255 208.008 65.7674 208.681 66.7506C209.405 67.682 210.492 68.1735 211.941 68.2253ZM267.427 53.0124C267.427 50.8908 268.281 49.1832 269.989 47.8896C271.696 46.596 273.74 45.6905 276.12 45.173C278.501 44.6038 280.752 44.3192 282.873 44.3192C286.443 44.3192 289.264 44.9143 291.333 46.1044C293.403 47.2946 294.904 49.2609 295.835 52.0033C296.818 54.7458 297.31 58.4973 297.31 63.2578C297.31 68.5875 296.508 73.141 294.904 76.9184C293.351 80.6958 291.075 82.7655 288.073 83.1278H287.452C285.331 83.1278 283.572 81.7048 282.175 78.8588C278.397 81.1873 274.128 82.3516 269.368 82.3516C263.728 82.3516 258.838 80.9545 254.698 78.1603C250.61 75.3661 247.506 71.5887 245.384 66.8282C243.263 62.0677 242.202 56.7638 242.202 50.9167C242.202 45.2248 243.34 40.0762 245.617 35.4709C247.945 30.8139 251.231 27.1141 255.474 24.3717C259.717 21.5775 264.659 20.0769 270.299 19.8699H271.619C275.241 19.8699 278.708 20.4391 282.019 21.5775C285.331 22.6641 287.789 24.1388 289.393 26.0016C291.049 27.9679 291.877 30.0636 291.877 32.2886C291.877 34.0479 291.385 35.5744 290.402 36.868C289.729 37.7477 288.875 38.4204 287.841 38.8861C286.806 39.3518 285.719 39.5846 284.581 39.5846C283.235 39.5846 282.123 39.3259 281.243 38.8084C280.053 38.1358 278.682 37.5924 277.129 37.1785C275.577 36.7128 274.102 36.4799 272.705 36.4799C270.687 36.4799 268.85 37.1785 267.194 38.5756C265.539 39.9727 264.219 41.8355 263.236 44.164C262.305 46.4925 261.839 48.9763 261.839 51.6152C261.839 55.4961 262.667 58.8078 264.323 61.5502C265.978 64.241 268.41 65.6898 271.619 65.8968L273.016 65.9744C275.551 65.9744 277.621 65.6122 279.225 64.8878C279.122 63.0767 279.122 61.4985 279.225 60.1531C276.017 60.1014 273.249 59.5322 270.92 58.4455C268.592 57.3589 267.427 55.5478 267.427 53.0124ZM330.819 19.8699C336.873 19.8699 342.073 21.2411 346.42 23.9836C350.766 26.7261 354.052 30.4775 356.277 35.2381C358.502 39.9468 359.614 45.2765 359.614 51.2272C359.614 57.0226 358.45 62.2747 356.122 66.9834C353.845 71.6404 350.585 75.3402 346.342 78.0827C342.099 80.8769 337.131 82.3775 331.44 82.5844H330.042C324.04 82.5844 318.866 81.1873 314.519 78.3931C310.224 75.6507 306.938 71.8992 304.662 67.1387C302.437 62.3264 301.324 56.9191 301.324 50.9167C301.324 45.2248 302.462 40.0762 304.739 35.4709C307.068 30.8139 310.354 27.1141 314.597 24.3717C318.84 21.5775 323.781 20.0769 329.421 19.8699H330.819ZM331.051 36.4799C329.033 36.4799 327.248 37.1785 325.696 38.5756C324.195 39.9727 323.031 41.8614 322.203 44.2416C321.375 46.5701 320.961 49.1056 320.961 51.8481C320.961 55.7807 321.686 59.0665 323.134 61.7055C324.583 64.2927 326.86 65.6898 329.965 65.8968H330.43C333.432 65.8968 335.76 64.3444 337.416 61.2398C339.124 58.1351 339.977 54.2284 339.977 49.5196C339.977 45.6387 339.253 42.5082 337.804 40.1279C336.407 37.7477 334.156 36.5317 331.051 36.4799Z" fill="#302F32"/>
<path d="M37.0193 63.7235L27.4398 65.261L27.4427 65.2791L27.4457 65.2973L37.0193 63.7235ZM37.0193 38.0323L46.5927 39.6076L46.593 39.606L37.0193 38.0323ZM39.1926 28.9511L30.1425 25.4544L30.1077 25.5446L30.0746 25.6354L39.1926 28.9511ZM42.9182 23.5955L49.0088 31.1478L49.0814 31.0892L49.1529 31.0292L42.9182 23.5955ZM49.3604 20.7237L47.4998 11.2016L47.426 11.216L47.3525 11.2316L49.3604 20.7237ZM77.9235 23.5179L82.9711 15.2322L82.9711 15.2322L77.9235 23.5179ZM88.4794 34.7724L79.9162 39.3332L79.9354 39.3693L79.9549 39.4053L88.4794 34.7724ZM88.557 66.8282L79.9735 62.3056L79.9543 62.3419L79.9355 62.3784L88.557 66.8282ZM78.0787 78.1603L73.0311 69.8746L72.9966 69.8956L72.9622 69.917L78.0787 78.1603ZM49.3604 81.0321L47.3525 90.5242L47.426 90.5397L47.4998 90.5541L49.3604 81.0321ZM42.9182 78.1603L49.1529 70.7266L49.0814 70.6666L49.0088 70.608L42.9182 78.1603ZM39.1926 72.8047L30.0746 76.1203L30.1077 76.2112L30.1425 76.3013L39.1926 72.8047ZM57.8207 36.0918L50.2446 30.031L50.1499 30.1493L50.059 30.2706L57.8207 36.0918ZM56.1131 40.5936L65.6427 42.4155L65.6488 42.3834L65.6547 42.3513L56.1131 40.5936ZM56.1907 63.0249L65.5128 60.3359L65.5088 60.3221L65.5048 60.3084L56.1907 63.0249ZM62.7106 67.061V76.7632H63.0566L63.4018 76.7385L62.7106 67.061ZM67.2124 65.1982L72.9498 73.0221L73.0333 72.9609L73.1154 72.8979L67.2124 65.1982ZM71.0932 59.765L62.2045 55.8762L62.1849 55.9211L62.1658 55.9661L71.0932 59.765ZM71.0156 41.4474L62.2285 45.5605L62.2456 45.5971L62.263 45.6335L71.0156 41.4474ZM66.7467 36.1695L61.4235 44.2809L61.4804 44.3182L61.5378 44.3548L66.7467 36.1695ZM37.0193 63.7235L46.5989 62.186C46.0107 58.5211 45.7124 54.741 45.7124 50.8391H36.0103H26.3082C26.3082 55.7338 26.6826 60.5433 27.4398 65.261L37.0193 63.7235ZM36.0103 50.8391H45.7124C45.7124 46.8782 46.0118 43.138 46.5927 39.6076L37.0193 38.0323L27.446 36.4569C26.6815 41.1022 26.3082 45.8999 26.3082 50.8391H36.0103ZM37.0193 38.0323L46.593 39.606C47.1655 36.1234 47.7708 33.7512 48.3106 32.2667L39.1926 28.9511L30.0746 25.6354C28.9586 28.7045 28.1151 32.3864 27.4457 36.4585L37.0193 38.0323ZM39.1926 28.9511L48.2427 32.4477C48.6225 31.4647 48.9557 31.1905 49.0088 31.1478L42.9182 23.5955L36.8277 16.0432C33.6726 18.5877 31.522 21.8839 30.1425 25.4544L39.1926 28.9511ZM42.9182 23.5955L49.1529 31.0292C49.2159 30.9764 49.7627 30.5554 51.3684 30.2157L49.3604 20.7237L47.3525 11.2316C43.5767 12.0303 39.8287 13.5239 36.6835 16.1618L42.9182 23.5955ZM49.3604 20.7237L51.2211 30.2457C55.1436 29.4793 58.9444 29.1063 62.633 29.1063V19.4042V9.70206C57.6285 9.70206 52.5809 10.2088 47.4998 11.2016L49.3604 20.7237ZM62.633 19.4042V29.1063C66.6916 29.1063 70.0159 30.0613 72.8759 31.8036L77.9235 23.5179L82.9711 15.2322C76.8275 11.4895 69.9581 9.70206 62.633 9.70206V19.4042ZM77.9235 23.5179L72.8759 31.8036C75.8576 33.62 78.1778 36.0695 79.9162 39.3332L88.4794 34.7724L97.0427 30.2115C93.71 23.9542 88.993 18.9007 82.9711 15.2322L77.9235 23.5179ZM88.4794 34.7724L79.9549 39.4053C81.7088 42.6325 82.6582 46.3234 82.6582 50.6838H92.3603H102.062C102.062 43.35 100.424 36.4332 97.004 30.1395L88.4794 34.7724ZM92.3603 50.6838H82.6582C82.6582 55.2098 81.7069 59.0156 79.9735 62.3056L88.557 66.8282L97.1406 71.3507C100.478 65.0162 102.062 58.0592 102.062 50.6838H92.3603ZM88.557 66.8282L79.9355 62.3784C78.245 65.6537 75.9691 68.0848 73.0311 69.8746L78.0787 78.1603L83.1264 86.446C89.192 82.7508 93.9016 77.6272 97.1786 71.278L88.557 66.8282ZM78.0787 78.1603L72.9622 69.917C70.1394 71.6691 66.7959 72.6495 62.633 72.6495V82.3516V92.0537C70.0609 92.0537 77.0146 90.2399 83.1953 86.4036L78.0787 78.1603ZM62.633 82.3516V72.6495C58.9444 72.6495 55.1436 72.2765 51.2211 71.5101L49.3604 81.0321L47.4998 90.5541C52.5809 91.547 57.6285 92.0537 62.633 92.0537V82.3516ZM49.3604 81.0321L51.3684 71.54C49.7627 71.2004 49.2159 70.7794 49.1529 70.7266L42.9182 78.1603L36.6835 85.594C39.8287 88.2319 43.5767 89.7254 47.3525 90.5242L49.3604 81.0321ZM42.9182 78.1603L49.0088 70.608C48.9557 70.5652 48.6225 70.2911 48.2427 69.3081L39.1926 72.8047L30.1425 76.3013C31.522 79.8718 33.6726 83.1681 36.8277 85.7125L42.9182 78.1603ZM39.1926 72.8047L48.3106 69.4891C47.7708 68.0046 47.1655 65.6324 46.593 62.1498L37.0193 63.7235L27.4457 65.2973C28.1151 69.3694 28.9586 73.0513 30.0746 76.1203L39.1926 72.8047ZM61.7792 34.5395V24.8374C58.1686 24.8374 53.5278 25.927 50.2446 30.031L57.8207 36.0918L65.3968 42.1527C64.6757 43.0541 63.7816 43.643 62.9734 43.96C62.6008 44.1061 62.296 44.1756 62.0952 44.2088C61.8964 44.2416 61.7837 44.2416 61.7792 44.2416V34.5395ZM57.8207 36.0918L50.059 30.2706C48.0258 32.9815 47.0713 36.1231 46.5715 38.836L56.1131 40.5936L65.6547 42.3513C65.7034 42.0868 65.7515 41.8797 65.7935 41.7235C65.8356 41.5668 65.8682 41.4739 65.8831 41.4344C65.8982 41.3946 65.8903 41.4228 65.8477 41.5029C65.8051 41.5833 65.7212 41.728 65.5824 41.9131L57.8207 36.0918ZM56.1131 40.5936L46.5836 38.7718C45.7702 43.0266 45.402 47.6927 45.402 52.7019H55.1041H64.8062C64.8062 48.604 65.1107 45.1979 65.6427 42.4155L56.1131 40.5936ZM55.1041 52.7019H45.402C45.402 57.4732 45.777 61.9711 46.8767 65.7415L56.1907 63.0249L65.5048 60.3084C65.1557 59.1113 64.8062 56.7272 64.8062 52.7019H55.1041ZM56.1907 63.0249L46.8687 65.714C47.7446 68.7504 49.5254 71.8082 52.6306 73.9902C55.6545 76.1151 59.0155 76.7632 61.9344 76.7632V67.061V57.3589C61.8004 57.3589 62.6776 57.3343 63.787 58.1138C64.9776 58.9505 65.413 59.9902 65.5128 60.3359L56.1907 63.0249ZM61.9344 67.061V76.7632H62.7106V67.061V57.3589H61.9344V67.061ZM62.7106 67.061L63.4018 76.7385C67.1771 76.4688 70.3917 74.898 72.9498 73.0221L67.2124 65.1982L61.4749 57.3744C61.2142 57.5655 61.1259 57.5888 61.213 57.5528C61.3119 57.5119 61.5913 57.4141 62.0193 57.3836L62.7106 67.061ZM67.2124 65.1982L73.1154 72.8979C76.381 70.3943 78.5518 67.0159 80.0207 63.5639L71.0932 59.765L62.1658 55.9661C61.5649 57.3782 61.1485 57.6219 61.3093 57.4986L67.2124 65.1982ZM71.0932 59.765L79.9819 63.6538C81.7594 59.5909 82.4253 55.0929 82.4253 50.5286H72.7232H63.021C63.021 53.3121 62.6003 54.9717 62.2045 55.8762L71.0932 59.765ZM72.7232 50.5286H82.4253C82.4253 45.9396 81.727 41.357 79.7682 37.2614L71.0156 41.4474L62.263 45.6335C62.581 46.2983 63.021 47.7699 63.021 50.5286H72.7232ZM71.0156 41.4474L79.8027 37.3343C78.1322 33.7655 75.6499 30.3352 71.9555 27.9841L66.7467 36.1695L61.5378 44.3548C61.2585 44.177 61.6222 44.2653 62.2285 45.5605L71.0156 41.4474ZM66.7467 36.1695L72.0698 28.058C69.1471 26.14 65.6706 24.8374 61.7792 24.8374V34.5395V44.2416C61.6599 44.2416 61.5486 44.2316 61.4503 44.2155C61.3525 44.1995 61.2807 44.1795 61.2381 44.1655C61.1528 44.1376 61.2143 44.1436 61.4235 44.2809L66.7467 36.1695ZM104.731 56.4275L101.258 47.3682L101.193 47.3933L101.128 47.4193L104.731 56.4275ZM99.8412 56.1947L94.5947 64.3559L94.7209 64.437L94.8495 64.5142L99.8412 56.1947ZM98.056 54.1766L89.3782 58.5155L89.4286 58.6164L89.4814 58.7161L98.056 54.1766ZM102.092 46.1821L106.658 54.7428L106.713 54.7133L106.768 54.6832L102.092 46.1821ZM115.209 42.7669L114.404 33.0983L114.319 33.1053L114.235 33.1138L115.209 42.7669ZM130.267 48.2001L122.246 53.6588L122.272 53.6966L122.298 53.7342L130.267 48.2001ZM134.536 62.7921L144.232 62.4458L144.231 62.41L144.229 62.3743L134.536 62.7921ZM134.226 67.682L124.621 66.3099L124.277 68.7147L125.108 70.9976L134.226 67.682ZM132.363 82.3516L135.732 91.4497L135.915 91.3822L136.094 91.3074L132.363 82.3516ZM125.377 82.274L120.318 90.5526L120.416 90.6127L120.516 90.6704L125.377 82.274ZM123.282 79.8678L132.129 75.8864L127.521 65.6461L118.058 71.6919L123.282 79.8678ZM100.229 65.2758L93.4464 58.3388L93.4074 58.3769L93.3689 58.4154L100.229 65.2758ZM108.612 60.0755L111.939 69.1893L112.003 69.1661L112.066 69.142L108.612 60.0755ZM117.538 58.3679L117.165 68.0629L129.373 68.5324L127.065 56.5357L117.538 58.3679ZM116.218 55.4961L109.358 62.3565L109.507 62.5056L109.662 62.6481L116.218 55.4961ZM114.821 67.682V57.9798H114.079L113.346 58.0927L114.821 67.682ZM111.872 69.1567L119.238 75.4708L119.345 75.3459L119.448 75.2176L111.872 69.1567ZM111.173 71.4076L101.66 73.3103L101.694 73.4833L101.735 73.6548L111.173 71.4076ZM113.347 73.0375V82.7397H113.787L114.225 82.6998L113.347 73.0375ZM114.2 72.9599L115.079 82.6222L115.296 82.6025L115.511 82.5731L114.2 72.9599ZM116.606 72.1061L110.161 64.8547V64.8547L116.606 72.1061ZM104.731 56.4275L101.128 47.4193C101.409 47.307 101.852 47.1911 102.403 47.1911V56.8932V66.5953C104.505 66.5953 106.501 66.169 108.334 65.4357L104.731 56.4275ZM102.403 56.8932V47.1911C103.176 47.1911 104.056 47.409 104.833 47.8751L99.8412 56.1947L94.8495 64.5142C97.1788 65.9117 99.7662 66.5953 102.403 66.5953V56.8932ZM99.8412 56.1947L105.088 48.0334C105.971 48.601 106.439 49.2755 106.631 49.6371L98.056 54.1766L89.4814 58.7161C90.6043 60.8371 92.263 62.8569 94.5947 64.3559L99.8412 56.1947ZM98.056 54.1766L106.734 49.8377C106.754 49.878 107.137 50.6352 107.137 51.9257H97.4351H87.733C87.733 54.5616 88.5301 56.8194 89.3782 58.5155L98.056 54.1766ZM97.4351 51.9257H107.137C107.137 52.5666 107.018 53.2061 106.796 53.7886C106.581 54.3565 106.316 54.7482 106.136 54.9703C105.825 55.3532 105.798 55.2014 106.658 54.7428L102.092 46.1821L97.5264 37.6214C93.349 39.8493 87.733 44.3001 87.733 51.9257H97.4351ZM102.092 46.1821L106.768 54.6832C108.248 53.8692 111.154 52.9276 116.184 52.42L115.209 42.7669L114.235 33.1138C107.985 33.7446 102.146 35.0797 97.4165 37.6809L102.092 46.1821ZM115.209 42.7669L116.015 52.4355C116.581 52.3884 117.029 52.3565 117.373 52.3368C117.544 52.3271 117.677 52.321 117.776 52.3175C117.825 52.3158 117.862 52.3148 117.889 52.3143C117.916 52.3138 117.927 52.3138 117.926 52.3138V42.6117V32.9095C116.925 32.9095 115.676 32.9923 114.404 33.0983L115.209 42.7669ZM117.926 42.6117V52.3138C121.357 52.3138 121.993 53.2873 122.246 53.6588L130.267 48.2001L138.288 42.7414C133.47 35.6617 125.879 32.9095 117.926 32.9095V42.6117ZM130.267 48.2001L122.298 53.7342C123.549 55.536 124.638 58.46 124.843 63.2099L134.536 62.7921L144.229 62.3743C143.916 55.1194 142.159 48.3154 138.236 42.666L130.267 48.2001ZM134.536 62.7921L124.84 63.1384C124.867 63.8868 124.818 64.9276 124.621 66.3099L134.226 67.682L143.83 69.0541C144.15 66.8142 144.309 64.5951 144.232 62.4458L134.536 62.7921ZM134.226 67.682L125.108 70.9976C126.165 73.9062 126.386 75.5439 126.386 76.2198H136.088H145.79C145.79 72.3423 144.77 68.288 143.344 64.3663L134.226 67.682ZM136.088 76.2198H126.386C126.386 76.4538 126.341 75.8676 126.865 75.0045C127.443 74.0543 128.224 73.5652 128.631 73.3958L132.363 82.3516L136.094 91.3074C138.985 90.103 141.629 88.0746 143.449 85.0804C145.215 82.1735 145.79 79.0388 145.79 76.2198H136.088ZM132.363 82.3516L128.993 73.2534C128.651 73.38 128.453 73.4292 128.384 73.444C128.312 73.4594 128.434 73.4256 128.715 73.4256V83.1278V92.8299C131.286 92.8299 133.69 92.206 135.732 91.4497L132.363 82.3516ZM128.715 83.1278V73.4256C128.839 73.4256 129.063 73.4406 129.353 73.5149C129.649 73.5904 129.952 73.712 130.238 73.8775L125.377 82.274L120.516 90.6704C123.112 92.1734 125.93 92.8299 128.715 92.8299V83.1278ZM125.377 82.274L130.436 73.9953C130.793 74.2135 131.153 74.5078 131.471 74.8734C131.787 75.2364 131.998 75.5943 132.129 75.8864L123.282 79.8678L114.434 83.8492C115.667 86.5903 117.651 88.923 120.318 90.5526L125.377 82.274ZM123.282 79.8678L118.058 71.6919C116.257 72.8428 113.534 73.7361 109.311 73.7361V83.4382V93.1404C116.264 93.1404 122.855 91.6534 128.505 88.0438L123.282 79.8678ZM109.311 83.4382V73.7361C107.864 73.7361 106.943 73.5833 106.419 73.4391C105.918 73.3011 105.914 73.2097 106.117 73.3775C106.36 73.5776 106.528 73.8407 106.592 74.001C106.633 74.102 106.516 73.8763 106.516 73.1152H96.8142H87.112C87.112 78.5919 88.8587 84.2892 93.7591 88.3374C98.3046 92.0924 104.052 93.1404 109.311 93.1404V83.4382ZM96.8142 73.1152H106.516C106.516 72.9264 106.545 72.8595 106.563 72.8182C106.588 72.7604 106.7 72.5263 107.09 72.1363L100.229 65.2758L93.3689 58.4154C89.4562 62.328 87.112 67.344 87.112 73.1152H96.8142ZM100.229 65.2758L107.012 72.2129C108.293 70.961 109.886 69.9388 111.939 69.1893L108.612 60.0755L105.285 50.9617C100.818 52.5925 96.823 55.0372 93.4464 58.3388L100.229 65.2758ZM108.612 60.0755L112.066 69.142C114.45 68.2337 116.103 68.022 117.165 68.0629L117.538 58.3679L117.911 48.673C113.591 48.5068 109.294 49.4335 105.158 51.009L108.612 60.0755ZM117.538 58.3679L127.065 56.5357C126.64 54.3216 125.627 50.9593 122.774 48.3441L116.218 55.4961L109.662 62.6481C108.814 61.8705 108.387 61.1025 108.198 60.6916C108.012 60.2872 107.987 60.0775 108.01 60.2001L117.538 58.3679ZM116.218 55.4961L123.079 48.6357C119.85 45.4068 115.791 44.9402 113.424 44.9402V54.6423V64.3444C113.405 64.3444 112.956 64.3477 112.258 64.1344C111.52 63.909 110.41 63.4081 109.358 62.3565L116.218 55.4961ZM113.424 54.6423V44.9402C109.303 44.9402 105.219 45.8498 101.258 47.3682L104.731 56.4275L108.204 65.4868C110.452 64.6249 112.164 64.3444 113.424 64.3444V54.6423ZM117.305 70.1657H127.007C127.007 68.2745 126.663 65.0561 124.33 62.1848C121.685 58.9282 118.049 57.9798 115.287 57.9798V67.682V77.3841C113.87 77.3841 111.244 76.8497 109.271 74.421C107.61 72.3777 107.603 70.4011 107.603 70.1657H117.305ZM115.287 67.682V57.9798H114.821V67.682V77.3841H115.287V67.682ZM114.821 67.682L113.346 58.0927C110.494 58.5314 106.921 59.8139 104.296 63.0958L111.872 69.1567L119.448 75.2176C118.064 76.9472 116.458 77.2465 116.297 77.2713L114.821 67.682ZM111.872 69.1567L104.505 62.8426C102.388 65.3129 100.798 69.0016 101.66 73.3103L111.173 71.4076L120.687 69.5048C120.925 70.6927 120.865 71.9542 120.498 73.1384C120.147 74.2673 119.608 75.0389 119.238 75.4708L111.872 69.1567ZM111.173 71.4076L101.735 73.6548C102.263 75.8706 103.521 78.4653 106.089 80.3918C108.591 82.2678 111.311 82.7397 113.347 82.7397V73.0375V63.3354C114.192 63.3354 115.955 63.5356 117.732 64.8684C119.576 66.2515 120.343 68.0312 120.612 69.1604L111.173 71.4076ZM113.347 73.0375L114.225 82.6998L115.079 82.6222L114.2 72.9599L113.322 63.2976L112.468 63.3753L113.347 73.0375ZM114.2 72.9599L115.511 82.5731C117.174 82.3464 120.372 81.7396 123.052 79.3576L116.606 72.1061L110.161 64.8547C111.137 63.9866 112.037 63.6193 112.411 63.4865C112.811 63.3446 113.012 63.33 112.889 63.3468L114.2 72.9599ZM116.606 72.1061L123.052 79.3576C126.33 76.4437 127.007 72.6402 127.007 70.1657H117.305H107.603C107.603 69.4506 107.814 66.9407 110.161 64.8547L116.606 72.1061ZM141.259 62.0935L131.578 61.4482L131.574 61.5159L131.57 61.5836L141.259 62.0935ZM144.752 47.812L153.151 52.668L153.167 52.6399L153.184 52.6116L144.752 47.812ZM158.878 45.3283L151.48 51.6053L157.539 58.7465L164.89 52.9433L158.878 45.3283ZM162.216 43.4655L158.929 34.3368L158.869 34.3586L158.809 34.3811L162.216 43.4655ZM176.652 45.3283L181.644 37.0088L176.652 45.3283ZM183.095 52.469L174.329 56.6288L174.343 56.6579L174.357 56.687L183.095 52.469ZM184.414 71.0195L193.934 72.8895V72.8895L184.414 71.0195ZM181.309 78.5484L173.388 72.9457L173.311 73.0551L173.237 73.1666L181.309 78.5484ZM169.046 77.0736L159.888 80.2787L159.904 80.3221L159.919 80.3652L169.046 77.0736ZM167.649 63.5683L177.348 63.8235L177.348 63.8142L177.348 63.8048L167.649 63.5683ZM167.105 58.9112L158.097 62.5145L158.13 62.5957L158.164 62.6762L167.105 58.9112ZM162.293 58.756L154.221 53.3742L152.591 55.8185V58.756H162.293ZM159.809 74.6675L150.646 71.4802L150.63 71.5247L150.615 71.5695L159.809 74.6675ZM141.259 62.0935L150.94 62.7389C151.31 57.1896 152.306 54.1308 153.151 52.668L144.752 47.812L136.352 42.9561C133.369 48.1166 132.036 54.5787 131.578 61.4482L141.259 62.0935ZM144.752 47.812L153.184 52.6116C153.343 52.3323 153.449 52.2103 153.472 52.1855C153.483 52.1735 153.476 52.1831 153.447 52.2066C153.419 52.2304 153.375 52.2633 153.316 52.2991C153.258 52.3351 153.193 52.3685 153.127 52.3971C153.06 52.4256 153.001 52.445 152.954 52.4574C152.857 52.4833 152.852 52.469 152.979 52.469V42.7669V33.0648C145.578 33.0648 139.783 36.9289 136.32 43.0124L144.752 47.812ZM152.979 42.7669V52.469C153.101 52.469 152.867 52.4866 152.452 52.3066C152.011 52.115 151.673 51.8327 151.48 51.6053L158.878 45.3283L166.276 39.0512C162.769 34.9175 157.962 33.0648 152.979 33.0648V42.7669ZM158.878 45.3283L164.89 52.9433C165.041 52.8243 165.264 52.6842 165.622 52.5498L162.216 43.4655L158.809 34.3811C156.683 35.1782 154.682 36.2799 152.866 37.7132L158.878 45.3283ZM162.216 43.4655L165.502 52.5941C165.765 52.4994 165.974 52.469 166.174 52.469V42.7669V33.0648C163.684 33.0648 161.253 33.5001 158.929 34.3368L162.216 43.4655ZM166.174 42.7669V52.469C168.987 52.469 170.654 53.0437 171.661 53.6478L176.652 45.3283L181.644 37.0088C176.959 34.1977 171.641 33.0648 166.174 33.0648V42.7669ZM176.652 45.3283L171.661 53.6478C172.835 54.3522 173.685 55.2707 174.329 56.6288L183.095 52.469L191.86 48.3093C189.607 43.5615 186.162 39.7194 181.644 37.0088L176.652 45.3283ZM183.095 52.469L174.357 56.687C175.075 58.1729 175.566 60.1325 175.566 62.7921H185.268H194.97C194.97 57.69 194.012 52.7675 191.832 48.251L183.095 52.469ZM185.268 62.7921H175.566C175.566 64.6708 175.359 66.7831 174.894 69.1495L184.414 71.0195L193.934 72.8895C194.608 69.4605 194.97 66.0878 194.97 62.7921H185.268ZM184.414 71.0195L174.894 69.1495C174.553 70.8871 173.998 72.0845 173.388 72.9457L181.309 78.5484L189.23 84.151C191.622 80.7691 193.137 76.9473 193.934 72.8895L184.414 71.0195ZM181.309 78.5484L173.237 73.1666C173.233 73.1716 173.474 72.823 174.055 72.5016C174.656 72.1695 175.188 72.1061 175.41 72.1061V81.8083V91.5104C181.333 91.5104 186.245 88.6361 189.382 83.9301L181.309 78.5484ZM175.41 81.8083V72.1061C175.569 72.1061 176.39 72.177 177.282 72.8402C178.114 73.4592 178.268 74.0479 178.173 73.782L169.046 77.0736L159.919 80.3652C160.962 83.2558 162.746 86.2118 165.7 88.409C168.713 90.6504 172.148 91.5104 175.41 91.5104V81.8083ZM169.046 77.0736L178.203 73.8685C177.7 72.4296 177.203 69.3276 177.348 63.8235L167.649 63.5683L157.95 63.313C157.784 69.6068 158.219 75.5083 159.888 80.2787L169.046 77.0736ZM167.649 63.5683L177.348 63.8048C177.407 61.4032 177.298 58.116 176.047 55.1463L167.105 58.9112L158.164 62.6762C158.016 62.3258 157.951 62.0734 157.927 61.9721C157.902 61.8661 157.904 61.8465 157.915 61.9372C157.925 62.0248 157.939 62.1836 157.948 62.4253C157.956 62.6652 157.958 62.9653 157.95 63.3317L167.649 63.5683ZM167.105 58.9112L176.114 55.308C175.391 53.5003 174.103 51.432 171.891 49.852C169.627 48.2351 167.133 47.6568 164.932 47.6568V57.3589V67.061C163.767 67.061 162.152 66.7415 160.612 65.6419C159.125 64.5794 158.406 63.2873 158.097 62.5145L167.105 58.9112ZM164.932 57.3589V47.6568C160.616 47.6568 156.677 49.689 154.221 53.3742L162.293 58.756L170.366 64.1378C169.895 64.8436 169.113 65.6714 167.958 66.2828C166.81 66.8907 165.716 67.061 164.932 67.061V57.3589ZM162.293 58.756H152.591C152.591 63.6884 151.893 67.8939 150.646 71.4802L159.809 74.6675L168.973 77.8549C171.037 71.9201 171.995 65.5179 171.995 58.756H162.293ZM159.809 74.6675L150.615 71.5695C150.436 72.1018 150.282 72.3642 150.225 72.4505C150.177 72.5239 150.216 72.4451 150.375 72.3234C150.449 72.2665 150.531 72.2146 150.615 72.1716C150.698 72.129 150.765 72.1042 150.806 72.0916C150.89 72.0657 150.811 72.1061 150.495 72.1061V81.8083V91.5104C154.54 91.5104 158.648 90.4315 162.181 87.7227C165.644 85.0674 167.76 81.4569 169.004 77.7656L159.809 74.6675ZM150.495 81.8083V72.1061C150.291 72.1061 150.585 72.0737 151.068 72.3404C151.568 72.6156 151.77 72.9331 151.753 72.9052C151.697 72.8135 151.436 72.3225 151.201 71.1584C150.969 70.0074 150.806 68.4122 150.806 66.2849H141.104H131.402C131.402 72.1213 132.228 78.1187 135.151 82.9496C138.548 88.5649 144.116 91.5104 150.495 91.5104V81.8083ZM141.104 66.2849H150.806C150.806 65.7375 150.844 64.5669 150.948 62.6035L141.259 62.0935L131.57 61.5836C131.467 63.5528 131.402 65.1764 131.402 66.2849H141.104ZM237.166 74.978L227.494 74.2194L227.491 74.2591L227.488 74.2988L237.166 74.978ZM234.139 89.57L225.191 85.8212L225.169 85.8729L225.148 85.9248L234.139 89.57ZM227.231 97.875L231.907 106.376L231.937 106.359L231.967 106.343L227.231 97.875ZM220.091 100.436L218.083 90.9443L217.996 90.9627L217.909 90.9827L220.091 100.436ZM201.928 100.126L199.389 109.49L199.409 109.495L199.428 109.5L201.928 100.126ZM194.555 96.4779L188.224 103.83V103.83L194.555 96.4779ZM192.071 88.561L201.344 91.4142L201.36 91.3606L201.376 91.3068L192.071 88.561ZM216.908 88.8714L212.94 97.7247L231.669 106.121L226.269 86.3186L216.908 88.8714ZM217.452 81.1097L226.399 84.8618L238.477 56.0592L212.205 72.9485L217.452 81.1097ZM214.502 82.274L212.149 72.8615L211.966 72.9072L211.786 72.9599L214.502 82.274ZM199.755 80.1783L204.479 71.7037L204.455 71.6904L204.431 71.6772L199.755 80.1783ZM192.537 73.1152L184.008 77.7408L184.055 77.8274L184.104 77.9131L192.537 73.1152ZM192.692 52.7795L184.322 47.8729V47.8729L192.692 52.7795ZM200.143 45.6387L204.808 54.1457L204.831 54.1329L204.855 54.1199L200.143 45.6387ZM211.475 42.7669V33.0648H211.358L211.241 33.0676L211.475 42.7669ZM222.109 46.8806L215.248 53.7411L224.983 63.4761L230.877 51.0339L222.109 46.8806ZM224.67 44.6297L228.402 53.5855L228.558 53.5203L228.712 53.4496L224.67 44.6297ZM228.008 43.7759L228.169 34.0751L228.088 34.0738H228.008V43.7759ZM235.071 49.7524L226.087 53.4168V53.4168L235.071 49.7524ZM211.941 68.2253L211.595 77.9212L211.768 77.9274H211.941V68.2253ZM215.356 66.4401L207.715 60.4606L207.633 60.5658L207.554 60.6732L215.356 66.4401ZM215.666 58.1351L207.417 63.2418L207.503 63.3808L207.594 63.5168L215.666 58.1351ZM212.407 56.4275L212.741 46.7311L212.574 46.7254H212.407V56.4275ZM208.836 58.2903L200.763 52.9085L200.684 53.0272L200.609 53.1482L208.836 58.2903ZM208.681 66.7506L200.674 72.2292L200.841 72.4735L201.023 72.7071L208.681 66.7506ZM237.166 74.978L227.488 74.2988C227.119 79.5517 226.252 83.2868 225.191 85.8212L234.139 89.57L243.088 93.3187C245.234 88.1949 246.385 82.2021 246.845 75.6572L237.166 74.978ZM234.139 89.57L225.148 85.9248C224.268 88.0954 223.288 88.9639 222.495 89.4074L227.231 97.875L231.967 106.343C237.28 103.371 240.906 98.7027 243.131 93.2151L234.139 89.57ZM227.231 97.875L222.556 89.3738C221.446 89.9844 219.99 90.5409 218.083 90.9443L220.091 100.436L222.099 109.928C225.573 109.193 228.877 108.042 231.907 106.376L227.231 97.875ZM220.091 100.436L217.909 90.9827C215.955 91.4335 213.92 91.6656 211.786 91.6656V101.368V111.07C215.343 111.07 218.844 110.681 222.272 109.89L220.091 100.436ZM211.786 101.368V91.6656C209.097 91.6656 206.656 91.3454 204.428 90.7514L201.928 100.126L199.428 109.5C203.41 110.562 207.541 111.07 211.786 111.07V101.368ZM201.928 100.126L204.468 90.762C202.426 90.2083 201.383 89.554 200.885 89.1259L194.555 96.4779L188.224 103.83C191.452 106.61 195.325 108.388 199.389 109.49L201.928 100.126ZM194.555 96.4779L200.885 89.1259C200.779 89.0339 200.961 89.1634 201.16 89.5671C201.374 90.0009 201.463 90.4595 201.463 90.8118H191.76H182.058C182.058 96.1987 184.534 100.653 188.224 103.83L194.555 96.4779ZM191.76 90.8118H201.463C201.463 90.7853 201.466 91.0163 201.344 91.4142L192.071 88.561L182.798 85.7077C182.261 87.4509 182.058 89.1826 182.058 90.8118H191.76ZM192.071 88.561L201.376 91.3068C201.338 91.436 201.219 91.7631 200.929 92.1653C200.629 92.5812 200.246 92.9381 199.836 93.1988C199.045 93.7012 198.686 93.5284 199.522 93.5284V83.8263V74.1242C196.322 74.1242 192.703 74.7405 189.429 76.8212C185.969 79.0197 183.811 82.2716 182.765 85.8151L192.071 88.561ZM199.522 83.8263V93.5284C201.453 93.5284 205.675 94.4681 212.94 97.7247L216.908 88.8714L220.877 80.0181C213.136 76.5479 205.767 74.1242 199.522 74.1242V83.8263ZM216.908 88.8714L226.269 86.3186C226.154 85.8981 226.145 85.6733 226.145 85.6115H216.443H206.74C206.74 87.6195 207.042 89.5679 207.548 91.4242L216.908 88.8714ZM216.443 85.6115H226.145C226.145 85.7767 226.106 85.5594 226.399 84.8618L217.452 81.1097L208.504 77.3577C207.452 79.8682 206.74 82.6521 206.74 85.6115H216.443ZM217.452 81.1097L212.205 72.9485C212.346 72.8576 212.456 72.7992 212.521 72.7666C212.586 72.7339 212.618 72.7218 212.609 72.7256C212.599 72.7292 212.558 72.7451 212.479 72.7699C212.4 72.7946 212.291 72.8259 212.149 72.8615L214.502 82.274L216.855 91.6864C218.674 91.2318 220.764 90.5146 222.698 89.2709L217.452 81.1097ZM214.502 82.274L211.786 72.9599C211.426 73.0647 211.073 73.1152 210.699 73.1152V82.8173V92.5194C212.912 92.5194 215.094 92.2076 217.219 91.588L214.502 82.274ZM210.699 82.8173V73.1152C207.969 73.1152 205.992 72.5472 204.479 71.7037L199.755 80.1783L195.031 88.6529C199.831 91.328 205.15 92.5194 210.699 92.5194V82.8173ZM199.755 80.1783L204.431 71.6772C202.853 70.8095 201.766 69.7184 200.969 68.3172L192.537 73.1152L184.104 77.9131C186.722 82.5144 190.447 86.132 195.079 88.6795L199.755 80.1783ZM192.537 73.1152L201.065 68.4895C200.256 66.9983 199.755 65.1748 199.755 62.7921H190.053H180.351C180.351 68.0676 181.505 73.1261 184.008 77.7408L192.537 73.1152ZM190.053 62.7921H199.755C199.755 60.7425 200.224 59.1148 201.062 57.6861L192.692 52.7795L184.322 47.8729C181.641 52.4466 180.351 57.494 180.351 62.7921H190.053ZM192.692 52.7795L201.062 57.6861C201.888 56.2774 203.055 55.1073 204.808 54.1457L200.143 45.6387L195.478 37.1318C190.815 39.6888 187.015 43.2792 184.322 47.8729L192.692 52.7795ZM200.143 45.6387L204.855 54.1199C206.547 53.1797 208.743 52.5377 211.709 52.4662L211.475 42.7669L211.241 33.0676C205.617 33.2031 200.259 34.4756 195.431 37.1576L200.143 45.6387ZM211.475 42.7669V52.469H212.096V42.7669V33.0648H211.475V42.7669ZM212.096 42.7669V52.469C213.496 52.469 214.354 52.8464 215.248 53.7411L222.109 46.8806L228.969 40.0202C224.379 35.4299 218.561 33.0648 212.096 33.0648V42.7669ZM222.109 46.8806L230.877 51.0339C230.518 51.7908 230.024 52.4106 229.503 52.8684C229.005 53.3059 228.582 53.5103 228.402 53.5855L224.67 44.6297L220.938 35.6739C218.029 36.8863 215.062 39.0937 213.34 42.7273L222.109 46.8806ZM224.67 44.6297L228.712 53.4496C228.902 53.3628 228.94 53.3633 228.84 53.3888C228.739 53.4148 228.449 53.4781 228.008 53.4781V43.7759V34.0738C225.197 34.0738 222.675 34.8715 220.628 35.8099L224.67 44.6297ZM228.008 43.7759L227.846 53.4767C227.588 53.4724 227.214 53.4223 226.793 53.2647C226.372 53.1069 226.048 52.8955 225.835 52.7153C225.454 52.3931 225.665 52.3808 226.087 53.4168L235.071 49.7524L244.054 46.0881C241.626 40.136 236.616 34.2159 228.169 34.0751L228.008 43.7759ZM235.071 49.7524L226.087 53.4168C226.991 55.6322 227.775 59.7991 227.775 66.673H237.477H247.179C247.179 58.8513 246.359 51.7379 244.054 46.0881L235.071 49.7524ZM237.477 66.673H227.775C227.775 69.3409 227.679 71.8551 227.494 74.2194L237.166 74.978L246.839 75.7366C247.067 72.8229 247.179 69.8004 247.179 66.673H237.477ZM211.941 68.2253V77.9274C216.623 77.9274 220.576 75.7005 223.158 72.207L215.356 66.4401L207.554 60.6732C207.855 60.266 208.43 59.6608 209.348 59.1807C210.285 58.6908 211.214 58.5232 211.941 58.5232V68.2253ZM215.356 66.4401L222.996 72.4196C225.393 69.3569 226.455 65.7743 226.455 62.1712H216.753H207.051C207.051 62.0818 207.065 61.8226 207.183 61.4625C207.304 61.0922 207.493 60.745 207.715 60.4606L215.356 66.4401ZM216.753 62.1712H226.455C226.455 59.0921 225.747 55.7645 223.739 52.7533L215.666 58.1351L207.594 63.5168C207.334 63.1268 207.187 62.7577 207.113 62.4814C207.042 62.2185 207.051 62.0952 207.051 62.1712H216.753ZM215.666 58.1351L223.916 53.0283C221.219 48.6715 216.826 46.872 212.741 46.7311L212.407 56.4275L212.072 66.1239C211.688 66.1106 210.847 66.0124 209.845 65.4877C208.784 64.9317 207.955 64.1111 207.417 63.2418L215.666 58.1351ZM212.407 56.4275V46.7254H212.174V56.4275V66.1296H212.407V56.4275ZM212.174 56.4275V46.7254C207.278 46.7254 203.245 49.1869 200.763 52.9085L208.836 58.2903L216.909 63.6721C216.615 64.1125 216.02 64.8066 215.02 65.3651C213.994 65.9376 212.967 66.1296 212.174 66.1296V56.4275ZM208.836 58.2903L200.609 53.1482C198.615 56.3387 197.97 59.8399 197.97 63.0249H207.672H217.374C217.374 62.7141 217.406 62.6329 217.384 62.7221C217.359 62.8234 217.277 63.0907 217.064 63.4324L208.836 58.2903ZM207.672 63.0249H197.97C197.97 65.9721 198.641 69.2581 200.674 72.2292L208.681 66.7506L216.688 61.2719C217.376 62.2767 217.374 63.079 217.374 63.0249H207.672ZM208.681 66.7506L201.023 72.7071C203.909 76.4179 207.993 77.7926 211.595 77.9212L211.941 68.2253L212.287 58.5293C212.559 58.5391 213.212 58.6044 214.038 58.9781C214.915 59.3746 215.723 60.0019 216.339 60.794L208.681 66.7506ZM269.989 47.8896L275.847 55.6231V55.6231L269.989 47.8896ZM276.12 45.173L278.181 54.6537L278.279 54.6324L278.377 54.6091L276.12 45.173ZM295.835 52.0033L286.648 55.1234L286.675 55.2006L286.702 55.2774L295.835 52.0033ZM294.904 76.9184L285.973 73.1261L285.951 73.1782L285.93 73.2305L294.904 76.9184ZM288.073 83.1278V92.8299H288.657L289.236 92.76L288.073 83.1278ZM282.175 78.8588L290.884 74.5834L286.177 64.9944L277.083 70.5998L282.175 78.8588ZM254.698 78.1603L249.223 86.17L249.247 86.186L249.27 86.2019L254.698 78.1603ZM245.384 66.8282L254.246 62.8788L245.384 66.8282ZM245.617 35.4709L236.939 31.132L236.929 31.1515L236.92 31.1711L245.617 35.4709ZM255.474 24.3717L260.741 32.52L260.776 32.4974L260.81 32.4746L255.474 24.3717ZM270.299 19.8699V10.1678H270.121L269.943 10.1743L270.299 19.8699ZM282.019 21.5775L278.865 30.7526L278.93 30.7748L278.994 30.796L282.019 21.5775ZM289.393 26.0016L296.814 19.7522L296.78 19.7113L296.745 19.6708L289.393 26.0016ZM290.402 36.868L298.109 42.7616L298.118 42.7501L298.126 42.7386L290.402 36.868ZM287.841 38.8861L283.859 30.0385L283.859 30.0385L287.841 38.8861ZM281.243 38.8084L286.162 30.4459L286.09 30.4034L286.017 30.3621L281.243 38.8084ZM277.129 37.1785L274.342 46.4714L274.485 46.5145L274.63 46.553L277.129 37.1785ZM267.194 38.5756L260.938 31.1603L260.938 31.1603L267.194 38.5756ZM263.236 44.164L254.298 40.3902L254.262 40.4751L254.228 40.5607L263.236 44.164ZM264.323 61.5502L256.017 66.565L256.038 66.6001L256.06 66.6351L264.323 61.5502ZM271.619 65.8968L270.994 75.5788L271.037 75.5816L271.08 75.584L271.619 65.8968ZM273.016 65.9744L272.478 75.6616L272.746 75.6765H273.016V65.9744ZM279.225 64.8878L283.218 73.73L289.292 70.9872L288.911 64.3343L279.225 64.8878ZM279.225 60.1531L288.899 60.8972L289.689 50.6185L279.382 50.4523L279.225 60.1531ZM270.92 58.4455L275.023 49.6536H275.023L270.92 58.4455ZM267.427 53.0124H277.129C277.129 53.2881 277.064 53.8421 276.745 54.4795C276.428 55.1137 276.035 55.4808 275.847 55.6231L269.989 47.8896L264.13 40.1561C260.029 43.2627 257.725 47.8187 257.725 53.0124H267.427ZM269.989 47.8896L275.847 55.6231C276.286 55.2905 276.99 54.9127 278.181 54.6537L276.12 45.173L274.059 35.6923C270.49 36.4682 267.106 37.9016 264.13 40.1561L269.989 47.8896ZM276.12 45.173L278.377 54.6091C280.128 54.1903 281.617 54.0214 282.873 54.0214V44.3192V34.6171C279.886 34.6171 276.873 35.0174 273.864 35.7369L276.12 45.173ZM282.873 44.3192V54.0214C284.138 54.0214 285.045 54.1284 285.663 54.2586C286.277 54.3882 286.505 54.5196 286.497 54.5153L291.333 46.1044L296.17 37.6936C292.075 35.3392 287.362 34.6171 282.873 34.6171V44.3192ZM291.333 46.1044L286.497 54.5153C286.449 54.4874 286.398 54.451 286.353 54.4114C286.309 54.3724 286.292 54.3489 286.298 54.3578C286.312 54.3759 286.464 54.5817 286.648 55.1234L295.835 52.0033L305.022 48.8833C303.501 44.4051 300.699 40.2979 296.17 37.6936L291.333 46.1044ZM295.835 52.0033L286.702 55.2774C287.146 56.5148 287.608 58.9983 287.608 63.2578H297.31H307.012C307.012 57.9963 306.491 52.9768 304.968 48.7292L295.835 52.0033ZM297.31 63.2578H287.608C287.608 67.6561 286.941 70.8486 285.973 73.1261L294.904 76.9184L303.834 80.7107C306.075 75.4335 307.012 69.5189 307.012 63.2578H297.31ZM294.904 76.9184L285.93 73.2305C285.53 74.2039 285.291 74.3202 285.506 74.1248C285.627 74.0146 285.836 73.8591 286.128 73.7243C286.422 73.5887 286.699 73.5211 286.911 73.4955L288.073 83.1278L289.236 92.76C296.927 91.8318 301.524 86.3335 303.878 80.6063L294.904 76.9184ZM288.073 83.1278V73.4256H287.452V83.1278V92.8299H288.073V83.1278ZM287.452 83.1278V73.4256C288.031 73.4256 288.656 73.527 289.269 73.7519C289.875 73.9738 290.333 74.2661 290.643 74.517C291.208 74.9736 291.194 75.215 290.884 74.5834L282.175 78.8588L273.465 83.1343C275.589 87.4595 279.947 92.8299 287.452 92.8299V83.1278ZM282.175 78.8588L277.083 70.5998C274.949 71.9158 272.466 72.6495 269.368 72.6495V82.3516V92.0537C275.79 92.0537 281.846 90.4589 287.266 87.1178L282.175 78.8588ZM269.368 82.3516V72.6495C265.403 72.6495 262.46 71.6943 260.126 70.1187L254.698 78.1603L249.27 86.2019C255.215 90.2147 262.052 92.0537 269.368 92.0537V82.3516ZM254.698 78.1603L260.173 70.1506C257.648 68.4244 255.676 66.0886 254.246 62.8788L245.384 66.8282L236.522 70.7775C239.335 77.0888 243.573 82.3077 249.223 86.17L254.698 78.1603ZM245.384 66.8282L254.246 62.8788C252.742 59.5047 251.904 55.5693 251.904 50.9167H242.202H232.5C232.5 57.9584 233.783 64.6307 236.522 70.7775L245.384 66.8282ZM242.202 50.9167H251.904C251.904 46.5532 252.767 42.9001 254.314 39.7707L245.617 35.4709L236.92 31.1711C233.913 37.2522 232.5 43.8964 232.5 50.9167H242.202ZM245.617 35.4709L254.295 39.8098C255.872 36.6551 258.001 34.2908 260.741 32.52L255.474 24.3717L250.208 16.2234C244.461 19.9375 240.019 24.9727 236.939 31.132L245.617 35.4709ZM255.474 24.3717L260.81 32.4746C263.41 30.7628 266.587 29.7148 270.655 29.5655L270.299 19.8699L269.943 10.1743C262.731 10.4389 256.025 12.3921 250.138 16.2687L255.474 24.3717ZM270.299 19.8699V29.572H271.619V19.8699V10.1678H270.299V19.8699ZM271.619 19.8699V29.572C274.205 29.572 276.603 29.9751 278.865 30.7526L282.019 21.5775L285.173 12.4023C280.812 10.9031 276.277 10.1678 271.619 10.1678V19.8699ZM282.019 21.5775L278.994 30.796C281.294 31.5504 281.974 32.2547 282.041 32.3325L289.393 26.0016L296.745 19.6708C293.604 16.0229 289.368 13.7778 285.044 12.3589L282.019 21.5775ZM289.393 26.0016L281.972 32.2511C282.217 32.5431 282.254 32.6673 282.232 32.6129C282.222 32.5879 282.206 32.5383 282.193 32.47C282.179 32.4013 282.175 32.338 282.175 32.2886H291.877H301.579C301.579 27.4277 299.701 23.1808 296.814 19.7522L289.393 26.0016ZM291.877 32.2886H282.175C282.175 32.2561 282.181 32.0652 282.273 31.7789C282.368 31.4843 282.514 31.2121 282.677 30.9974L290.402 36.868L298.126 42.7386C300.501 39.6142 301.579 35.9819 301.579 32.2886H291.877ZM290.402 36.868L282.695 30.9745C282.842 30.7818 283.03 30.5867 283.253 30.4113C283.474 30.2367 283.687 30.1161 283.859 30.0385L287.841 38.8861L291.822 47.7336C294.287 46.6246 296.434 44.9523 298.109 42.7616L290.402 36.868ZM287.841 38.8861L283.859 30.0385C283.954 29.996 284.075 29.9534 284.217 29.9232C284.357 29.893 284.483 29.8825 284.581 29.8825V39.5846V49.2867C287.087 49.2867 289.531 48.7644 291.822 47.7336L287.841 38.8861ZM284.581 39.5846V29.8825C284.43 29.8825 285.149 29.8497 286.162 30.4459L281.243 38.8084L276.324 47.171C279.097 48.8021 282.041 49.2867 284.581 49.2867V39.5846ZM281.243 38.8084L286.017 30.3621C283.999 29.2216 281.841 28.3938 279.629 27.8039L277.129 37.1785L274.63 46.553C275.522 46.7911 276.107 47.0499 276.469 47.2547L281.243 38.8084ZM277.129 37.1785L279.917 27.8855C277.602 27.1909 275.184 26.7778 272.705 26.7778V36.4799V46.1821C273.021 46.1821 273.552 46.2347 274.342 46.4714L277.129 37.1785ZM272.705 36.4799V26.7778C268.222 26.7778 264.205 28.4036 260.938 31.1603L267.194 38.5756L273.451 45.9908C273.528 45.9258 273.466 45.9951 273.263 46.0724C273.05 46.1533 272.842 46.1821 272.705 46.1821V36.4799ZM267.194 38.5756L260.938 31.1603C257.934 33.6951 255.777 36.8881 254.298 40.3902L263.236 44.164L272.174 47.9379C272.662 46.7829 273.144 46.2503 273.451 45.9908L267.194 38.5756ZM263.236 44.164L254.228 40.5607C252.814 44.0945 252.137 47.8074 252.137 51.6152H261.839H271.541C271.541 50.1451 271.795 48.8906 272.244 47.7673L263.236 44.164ZM261.839 51.6152H252.137C252.137 56.8892 253.272 62.018 256.017 66.565L264.323 61.5502L272.628 56.5355C272.062 55.5975 271.541 54.103 271.541 51.6152H261.839ZM264.323 61.5502L256.06 66.6351C259.399 72.062 264.71 75.1734 270.994 75.5788L271.619 65.8968L272.243 56.2148C272.09 56.2049 272.048 56.1869 272.091 56.1994C272.138 56.2133 272.235 56.2491 272.354 56.3198C272.473 56.3908 272.562 56.4657 272.613 56.5183C272.662 56.5676 272.646 56.5643 272.585 56.4654L264.323 61.5502ZM271.619 65.8968L271.08 75.584L272.478 75.6616L273.016 65.9744L273.554 56.2872L272.157 56.2096L271.619 65.8968ZM273.016 65.9744V75.6765C276.368 75.6765 279.933 75.2136 283.218 73.73L279.225 64.8878L275.232 56.0455C275.297 56.0161 275.181 56.0787 274.797 56.1458C274.414 56.213 273.833 56.2723 273.016 56.2723V65.9744ZM279.225 64.8878L288.911 64.3343C288.825 62.8187 288.837 61.6929 288.899 60.8972L279.225 60.1531L269.552 59.409C269.406 61.3041 269.418 63.3347 269.539 65.4413L279.225 64.8878ZM279.225 60.1531L279.382 50.4523C277.209 50.4172 275.847 50.0384 275.023 49.6536L270.92 58.4455L266.817 67.2374C270.65 69.026 274.825 69.7855 279.069 69.854L279.225 60.1531ZM270.92 58.4455L275.023 49.6536C275.194 49.7336 275.876 50.114 276.462 51.0258C277.053 51.9457 277.129 52.7558 277.129 53.0124H267.427H257.725C257.725 55.8044 258.384 58.7877 260.139 61.5188C261.89 64.2416 264.317 66.0708 266.817 67.2374L270.92 58.4455ZM346.42 23.9836L341.242 32.1889V32.1889L346.42 23.9836ZM356.277 35.2381L347.487 39.3462L347.496 39.3647L347.505 39.3831L356.277 35.2381ZM356.122 66.9834L347.425 62.6828L347.415 62.7024L347.405 62.7221L356.122 66.9834ZM346.342 78.0827L341.075 69.9344L341.041 69.9569L341.006 69.9797L346.342 78.0827ZM331.44 82.5844V92.2866H331.616L331.792 92.2802L331.44 82.5844ZM314.519 78.3931L319.766 70.2319L319.753 70.2239L319.741 70.2159L314.519 78.3931ZM304.662 67.1387L295.855 71.2104L295.882 71.2677L295.909 71.3247L304.662 67.1387ZM304.739 35.4709L296.061 31.132L296.052 31.1515L296.042 31.1711L304.739 35.4709ZM314.597 24.3717L319.863 32.52L319.898 32.4974L319.933 32.4746L314.597 24.3717ZM329.421 19.8699V10.1678H329.243L329.066 10.1743L329.421 19.8699ZM331.051 36.4799L331.213 26.7791L331.132 26.7778H331.051V36.4799ZM325.696 38.5756L319.205 31.3641L319.145 31.4188L319.085 31.4747L325.696 38.5756ZM322.203 44.2416L331.345 47.4919L331.356 47.4605L331.367 47.429L322.203 44.2416ZM323.134 61.7055L314.63 66.3747L314.649 66.4104L314.669 66.446L323.134 61.7055ZM329.965 65.8968L329.319 75.5774L329.642 75.5989H329.965V65.8968ZM337.416 61.2398L328.915 56.5641L328.885 56.6189L328.855 56.674L337.416 61.2398ZM337.804 40.1279L329.437 45.0392L329.476 45.1062L329.517 45.1725L337.804 40.1279ZM330.819 19.8699V29.572C335.371 29.572 338.704 30.5871 341.242 32.1889L346.42 23.9836L351.597 15.7782C345.442 11.8952 338.374 10.1678 330.819 10.1678V19.8699ZM346.42 23.9836L341.242 32.1889C343.98 33.9165 346.031 36.2292 347.487 39.3462L356.277 35.2381L365.066 31.1299C362.073 24.7259 357.552 19.5356 351.597 15.7782L346.42 23.9836ZM356.277 35.2381L347.505 39.3831C349.036 42.6228 349.912 46.5054 349.912 51.2272H359.614H369.317C369.317 44.0476 367.968 37.2708 365.049 31.093L356.277 35.2381ZM359.614 51.2272H349.912C349.912 55.687 349.026 59.4445 347.425 62.6828L356.122 66.9834L364.819 71.2841C367.874 65.1048 369.317 58.3582 369.317 51.2272H359.614ZM356.122 66.9834L347.405 62.7221C345.883 65.8373 343.796 68.1756 341.075 69.9344L346.342 78.0827L351.609 86.2309C357.374 82.5047 361.807 77.4436 364.838 71.2447L356.122 66.9834ZM346.342 78.0827L341.006 69.9797C338.421 71.682 335.224 72.7383 331.087 72.8887L331.44 82.5844L331.792 92.2802C339.039 92.0166 345.777 90.0718 351.678 86.1856L346.342 78.0827ZM331.44 82.5844V72.8823H330.042V82.5844V92.2866H331.44V82.5844ZM330.042 82.5844V72.8823C325.593 72.8823 322.307 71.866 319.766 70.2319L314.519 78.3931L309.272 86.5543C315.424 90.5087 322.487 92.2866 330.042 92.2866V82.5844ZM314.519 78.3931L319.741 70.2159C317.028 68.484 314.939 66.1403 313.414 62.9526L304.662 67.1387L295.909 71.3247C298.938 77.658 303.42 82.8173 309.297 86.5703L314.519 78.3931ZM304.662 67.1387L313.468 63.0669C311.907 59.6898 311.026 55.6991 311.026 50.9167H301.324H291.622C291.622 58.139 292.967 64.963 295.855 71.2104L304.662 67.1387ZM301.324 50.9167H311.026C311.026 46.5532 311.889 42.9001 313.437 39.7707L304.739 35.4709L296.042 31.1711C293.036 37.2522 291.622 43.8964 291.622 50.9167H301.324ZM304.739 35.4709L313.417 39.8098C314.994 36.6551 317.123 34.2908 319.863 32.52L314.597 24.3717L309.33 16.2234C303.584 19.9375 299.141 24.9727 296.061 31.132L304.739 35.4709ZM314.597 24.3717L319.933 32.4746C322.532 30.7628 325.709 29.7148 329.777 29.5655L329.421 19.8699L329.066 10.1743C321.853 10.4389 315.147 12.3921 309.261 16.2687L314.597 24.3717ZM329.421 19.8699V29.572H330.819V19.8699V10.1678H329.421V19.8699ZM331.051 36.4799V26.7778C326.546 26.7778 322.471 28.4251 319.205 31.3641L325.696 38.5756L332.186 45.7871C332.173 45.7992 332.022 45.9265 331.734 46.0389C331.442 46.1534 331.188 46.1821 331.051 46.1821V36.4799ZM325.696 38.5756L319.085 31.4747C316.191 34.1685 314.269 37.5185 313.039 41.0543L322.203 44.2416L331.367 47.429C331.793 46.2043 332.199 45.7768 332.307 45.6765L325.696 38.5756ZM322.203 44.2416L313.062 40.9913C311.824 44.4714 311.259 48.119 311.259 51.8481H320.961H330.663C330.663 50.0923 330.926 48.6689 331.345 47.4919L322.203 44.2416ZM320.961 51.8481H311.259C311.259 56.9283 312.191 61.9328 314.63 66.3747L323.134 61.7055L331.639 57.0362C331.18 56.2002 330.663 54.6331 330.663 51.8481H320.961ZM323.134 61.7055L314.669 66.446C317.814 72.062 323.134 75.1651 329.319 75.5774L329.965 65.8968L330.61 56.2161C330.367 56.2 330.596 56.1746 331.003 56.4244C331.191 56.5396 331.347 56.6724 331.463 56.7962C331.575 56.9163 331.613 56.9887 331.6 56.965L323.134 61.7055ZM329.965 65.8968V75.5989H330.43V65.8968V56.1947H329.965V65.8968ZM330.43 65.8968V75.5989C337.704 75.5989 342.986 71.4135 345.977 65.8055L337.416 61.2398L328.855 56.674C328.591 57.1694 328.577 56.9723 329.046 56.6599C329.278 56.5051 329.553 56.3749 329.842 56.2907C330.126 56.208 330.337 56.1947 330.43 56.1947V65.8968ZM337.416 61.2398L345.917 65.9154C348.629 60.9839 349.68 55.3448 349.68 49.5196H339.977H330.275C330.275 53.1119 329.618 55.2862 328.915 56.5641L337.416 61.2398ZM339.977 49.5196H349.68C349.68 44.5277 348.761 39.4679 346.092 35.0833L337.804 40.1279L329.517 45.1725C329.745 45.5484 330.275 46.7498 330.275 49.5196H339.977ZM337.804 40.1279L346.171 35.2167C342.821 29.5081 337.197 26.8789 331.213 26.7791L331.051 36.4799L330.89 46.1807C331.216 46.1861 330.962 46.24 330.457 45.9669C330.212 45.8347 329.981 45.6635 329.785 45.4703C329.592 45.2805 329.484 45.1189 329.437 45.0392L337.804 40.1279Z" fill="white" mask="url(#path-1-outside-1_232_2008)"/>
</g>
<defs>
<filter id="filter0_d_232_2008" x="10.138" y="2.00272e-05" width="375.349" height="133.708" filterUnits="userSpaceOnUse" color-interpolation-filters="sRGB">
<feFlood flood-opacity="0" result="BackgroundImageFix"/>
<feColorMatrix in="SourceAlpha" type="matrix" values="0 0 0 0 0 0 0 0 0 0 0 0 0 0 0 0 0 0 127 0" result="hardAlpha"/>
<feOffset dy="6.46809"/>
<feGaussianBlur stdDeviation="8.08511"/>
<feComposite in2="hardAlpha" operator="out"/>
<feColorMatrix type="matrix" values="0 0 0 0 0.552885 0 0 0 0 0.552885 0 0 0 0 0.552885 0 0 0 0.3 0"/>
<feBlend mode="normal" in2="BackgroundImageFix" result="effect1_dropShadow_232_2008"/>
<feBlend mode="normal" in="SourceGraphic" in2="effect1_dropShadow_232_2008" result="shape"/>
</filter>
</defs>
</svg>
